#File written by LIBRIZOMUV. Compilation :Jan 29 2019,17:17:16
mtllib 
#begin vertices
v -0.362144 0.104622 0.621741
v -0.303183 0.087791 0.618663
v -0.197111 0.192415 0.613128
v -0.362144 0.168601 0.621741
v -0.303183 0.185432 0.618663
v -0.244088 0.104622 0.342324
v -0.205195 0.087791 0.386746
v -0.135227 0.192415 0.466661
v -0.244088 0.168601 0.342324
v -0.205195 0.185432 0.386746
v 0.213491 0.104622 0.864954
v 0.174598 0.087791 0.820532
v 0.10463 0.192415 0.740617
v 0.213491 0.168601 0.864954
v 0.174598 0.185432 0.820532
v 0.331548 0.104622 0.585537
v 0.272586 0.087791 0.588615
v 0.166514 0.192415 0.59415
v 0.331548 0.168601 0.585537
v 0.272586 0.185432 0.588615
v -0.370919 0.160426 0.622199
v -0.370919 0.112797 0.622199
v -0.381491 0.136611 0.62275
v -0.249876 0.112797 0.335714
v -0.249876 0.160426 0.335714
v -0.256849 0.136611 0.327749
v 0.340322 0.112797 0.585079
v 0.340322 0.160426 0.585079
v 0.350894 0.136611 0.584528
v 0.219279 0.112797 0.871564
v 0.219279 0.160426 0.871564
v 0.226252 0.136611 0.879529
#end vertices

#begin 40 textures vertices 
vt 0.3020013 0.9980469 0
vt 0.2785446 0.9980469 0
vt 0.07996429 0.3801627 0
vt 0.02264596 0.4922567 0
vt 0.04519994 0.4514535 0
vt 0.3020013 0.1647063 0
vt 0.2785446 0.1647063 0
vt 0.1978812 0.3803354 0
vt 0.2550032 0.4926448 0
vt 0.2326051 0.451493 0
vt 0.3020013 0.6627533 0
vt 0.2785446 0.6627533 0
vt 0.08010409 0.136825 0
vt 0.02298588 0.02447962 0
vt 0.04538339 0.06564707 0
vt 0.3020013 0.5 0
vt 0.2785446 0.5 0
vt 0.1980148 0.1370214 0
vt 0.255332 0.02488966 0
vt 0.2327772 0.06570664 0
vt 0.01658723 0.4998557 0
vt 0.3076186 0.9980469 0
vt 0.3211507 0.001953125 0
vt 0.3076186 0.1647063 0
vt 0.2610363 0.5003443 0
vt 0.2759993 0.5151579 0
vt 0.3076186 0.5 0
vt 0.2614266 0.01731186 0
vt 0.2759993 0.001953125 0
vt 0.3076186 0.6627533 0
vt 0.01691764 0.01679652 0
vt 0.001953125 0.001984167 0
vt 0.3211507 0.6627533 0
vt 0.3211507 0.5 0
vt 0.3211507 0.1647063 0
vt 0.002016505 0.515217 0
vt 0.2785446 0.001953125 0
vt 0.3020013 0.001953125 0
vt 0.3076186 0.001953125 0
vt 0.3211507 0.9980469 0
#end 40 textures vertices 

#begin 32 normals 
vn 0.0466 0.9977 -0.0497
vn 0.0032 0.9977 -0.068
vn -0.0466 0.9977 0.0497
vn -0.0032 0.9977 0.068
vn 0.5189 -0.7949 -0.3145
vn 0.7803 -0.5214 -0.3453
vn 0.2964 -0.5214 0.8002
vn 0.1362 -0.7949 0.5913
vn -0.7803 0.5214 0.3453
vn -0.5189 0.7949 0.3145
vn -0.1362 0.7949 -0.5913
vn -0.2964 0.5214 -0.8002
vn -0.7803 -0.5214 0.3453
vn -0.5189 -0.7949 0.3145
vn -0.1362 -0.7949 -0.5913
vn -0.2964 -0.5214 -0.8002
vn 0.2964 0.5214 0.8002
vn 0.1362 0.7949 0.5913
vn 0.7803 0.5214 -0.3453
vn 0.5189 0.7949 -0.3145
vn -0.0002 -0.9352 -0.3541
vn -0.2541 -0.9352 0.2467
vn -0.0084 0.9602 -0.279
vn -0.2059 0.9602 0.1884
vn 0.2541 -0.9352 -0.2467
vn 0.2059 0.9602 -0.1884
vn 0.0002 -0.9352 0.3541
vn 0.0084 0.9602 0.279
vn -0.9435 -0 0.3314
vn 0.42 -0 0.9075
vn 0.9435 -0 -0.3314
vn -0.42 -0 -0.9075
#end 32 normals 

#begin 29 faces
o Cube
s 1
f 18/18/1 8/8/2 3/3/3 13/13/4 
f 16/16/5 27/27/6 30/30/7 11/11/8 
f 21/21/9 4/4/10 9/9/11 25/25/12 
f 11/11/8 30/30/7 22/22/13 1/1/14 
f 6/6/15 24/24/16 27/27/6 16/16/5 
f 31/31/17 14/14/18 4/4/10 21/21/9 
f 28/28/19 19/19/20 14/14/18 31/31/17 
f 25/25/12 9/9/11 19/19/20 28/28/19 
f 7/7/21 2/37/22 1/38/14 6/6/15 
f 3/3/3 8/8/2 10/10/23 5/5/24 
f 5/5/24 10/10/23 9/9/11 4/4/10 
f 17/17/25 7/7/21 6/6/15 16/16/5 
f 8/8/2 18/18/1 20/20/26 10/10/23 
f 10/10/23 20/20/26 19/19/20 9/9/11 
f 12/12/27 17/17/25 16/16/5 11/11/8 
f 18/18/1 13/13/4 15/15/28 20/20/26 
f 20/20/26 15/15/28 14/14/18 19/19/20 
f 2/2/22 12/12/27 11/11/8 1/1/14 
f 13/13/4 3/3/3 5/5/24 15/15/28 
f 15/15/28 5/5/24 4/4/10 14/14/18 
f 31/31/17 21/21/9 23/36/29 32/32/30 
f 32/33/30 23/40/29 22/22/13 30/30/7 
f 28/28/19 31/31/17 32/32/30 29/29/31 
f 29/34/31 32/33/30 30/30/7 27/27/6 
f 25/25/12 28/28/19 29/29/31 26/26/32 
f 26/35/32 29/34/31 27/27/6 24/24/16 
f 21/21/9 25/25/12 26/26/32 23/36/29 
f 23/23/29 26/35/32 24/24/16 22/39/13 
f 1/38/14 22/39/13 24/24/16 6/6/15 
#end 29 faces

#begin properties
#ZOMPROPERTIES_02 table {Mesh table {IslandsUVW table {0 table {TopoStable table {Selected bool false Visible bool false } } 1 table {TopoStable table {Selected bool false Visible bool false } } } SymPlane table {Point vector3d 0 0 0 Normal vector3d 1 0 0 Threshold double 0.01 Enabled bool false EdgeID int -1 SymEdgeID int -1 UPos double 0.5 LocalMode bool false } RootGroup CSubMeshGroup {Children table {Tile_0_0 CSubMeshGroup {Children table {} IslandIDs ints { 0 1 } BBoxUV box3d 0 0 0 0 0 0 BBox3D box3d 0 0 0 0 0 0 AreaUV double 0.183069 Area3D double 0 IsRoot bool false TopoStable table {Selected bool false Box box3d 0 1 0 1 0 1 U int 0 V int 0 NU int 0 NV int 0 Tiling vector3d 1 1 1 TileRatioMode string "1:1" } IsTile bool true } } IslandIDs ints { } BBoxUV box3d 0 0 0 0 0 0 BBox3D box3d 0 0 0 0 0 0 AreaUV double 0 Area3D double 0 IsRoot bool true TopoStable table {Selected bool false Box box3d 0 1 0 1 0 1 U int 0 V int 0 NU int 1 NV int 1 Tiling vector3d 1 1 1 TileRatioMode string "1:1" Pack table {Rotate table {Mode int 2 Min double 0 Max double 180 Step double 0 } SpacingSize double 0.00390625 MarginSize double 0.001953125 Resolution int 200 Scaling table {Mode int 0 } LayoutScalingMode int 2 MaxMutations int 1 } } IsTile bool false } Maps table {Density table {PrimType string "Polygon" Size int 1 DefaultValue double 1 ScaleType string "Log" MinValue double 0.1 MaxValue double 4 Data doubles { r 29 1 } } Pin table {PrimType string "Vertex" Size int 1 DefaultValue double 0 ScaleType string "Normalized" MinValue double 0 MaxValue double 1 Data doubles { r 40 0 } } Protect table {PrimType string "Vertex" Size int 1 DefaultValue double 0 ScaleType string "Normalized" MinValue double -1 MaxValue double 1 Data doubles { r 40 0 } } } } }
#end properties

#begin 0 fatal error vertex (that RizomUV cannot handle)
#end 0 fatal error vertex (that RizomUV cannot handle)

#begin 0 error vertex
#end 0 error vertex
